<svg width="1200" height="1200" viewBox="0 0 1200 1200" fill="none" xmlns="http://www.w3.org/2000/svg">
<path d="M694.108 936.408C688.558 945.215 680.866 952.049 676.856 961.842C680.372 961.382 683.889 960.923 687.405 960.463C662.598 908.034 681.067 849.905 707.935 802.263C721.66 777.925 738.978 756.12 754.204 732.772C769.054 710.001 781.804 685.937 791.927 660.7C802.043 635.483 808.736 609.133 812.283 582.212C815.663 556.556 815.74 530.185 814.888 504.35C813.299 456.198 803.058 408.193 771.67 370.291C754.371 349.402 731.225 333.381 707.736 320.203C684.381 307.1 659.046 297.429 632.898 291.673C580.982 280.244 526.627 285.727 477.176 304.709C432.739 321.767 391.865 348.084 363.795 387.043C339.901 420.207 327.366 460.189 323.12 500.539C318.757 541.996 323.669 584.414 334.844 624.458C346.014 664.483 363.961 703.823 389.636 736.66C417.32 772.066 456.812 801.255 468.121 846.809C473.938 870.239 472.336 894.855 472.897 918.775C473.465 942.983 476.683 967.016 488.166 988.667C491.655 995.245 501.618 989.412 498.133 982.841C484.584 957.295 484.413 928.46 484.21 900.262C484.008 872.239 482.641 844.311 470.108 818.694C458.524 795.017 439.647 775.496 421.992 756.293C405.544 738.402 390.462 720.124 378.303 699.018C337.96 628.986 320.963 540.116 341.903 461.234C352.373 421.796 373.655 386.102 404.616 359.37C423.692 342.9 446.402 330.461 469.358 320.319C493.985 309.439 520.461 302.113 547.197 298.936C600.229 292.634 653.697 303.845 700.457 329.366C724.304 342.382 747.044 358.574 764.459 379.603C779.678 397.98 789.538 420.143 795.462 443.111C801.481 466.448 803.22 490.654 803.593 514.674C804.003 541.071 803.409 567.699 798.97 593.768C789.753 647.891 765.148 697.499 733.936 742.197C722.453 758.641 710.679 774.711 700.503 792.031C689.989 809.927 680.986 828.778 674.276 848.433C661.084 887.07 659.733 928.871 677.437 966.288C679.832 971.35 686.317 968.986 687.986 964.909C691.497 956.335 699.183 949.993 704.074 942.232C708.056 935.916 698.064 930.129 694.108 936.408Z" fill="white"/>
<path d="M470.272 898.645C545.759 907.264 621.363 915.791 697.378 917.697C704.826 917.884 704.808 906.34 697.378 906.154C621.363 904.248 545.758 895.721 470.272 887.102C462.884 886.258 462.965 897.81 470.272 898.645Z" fill="white"/>
<path d="M470.76 897.246C457.302 907.867 448.793 927.46 466.289 938.766C470.963 941.786 477.164 942.278 482.522 943.313C488.976 944.559 495.473 945.569 501.984 946.465C515.113 948.273 528.312 949.44 541.542 950.189C594.237 953.173 647.02 949.185 699.734 949.017C707.176 948.993 707.179 937.45 699.734 937.474C652.519 937.625 605.331 940.671 558.11 939.339C534.997 938.687 511.885 936.864 489.103 932.832C482.584 931.678 467.925 931.312 467.535 922.143C467.248 915.394 474.165 909.165 478.924 905.409C484.762 900.798 476.534 892.688 470.76 897.246Z" fill="white"/>
<path d="M483.594 949.065C477.944 956.519 473.092 965.814 475.381 975.415C477.449 984.088 485.55 989.091 493.216 992.244C503.507 996.476 515.136 997.677 526.129 998.507C540.333 999.578 554.637 999.309 568.852 998.613C596.162 997.275 623.397 994.015 650.408 989.835C666.989 987.27 684.334 985.051 700.381 979.944C707.446 977.696 704.426 966.55 697.312 968.813C678.662 974.747 658.376 977.123 639.091 979.945C609.356 984.295 579.257 987.417 549.185 987.648C538.515 987.73 527.813 987.375 517.214 986.101C513.511 985.656 508.995 984.841 504.959 983.86C501.156 982.936 497.297 981.623 494.873 980.453C493.47 979.776 492.124 978.986 490.836 978.111C489.457 977.174 491.202 978.491 489.97 977.44C489.454 977 488.975 976.52 488.509 976.029C487.432 974.894 488.183 975.711 487.949 975.381C487.585 974.867 487.275 974.318 486.982 973.762C486.214 972.305 487.232 974.633 486.716 973.069C486.519 972.471 486.39 971.852 486.279 971.233C486.655 973.323 486.525 967.617 486.274 969.475C486.482 967.938 486.931 966.439 487.454 964.983C487.772 964.098 488.485 962.66 489.488 960.906C490.692 958.803 492.099 956.82 493.561 954.89C498.06 948.955 488.029 943.214 483.594 949.065Z" fill="white"/>
<path d="M485.664 1024.52C512.641 1040.85 547.415 1044.08 578.251 1043.78C612.439 1043.44 649.172 1037.64 679.123 1020.28C685.558 1016.55 679.749 1006.57 673.297 1010.31C645.399 1026.49 611.46 1031.58 579.661 1032.21C550.478 1032.8 517.047 1030.03 491.491 1014.55C485.105 1010.69 479.307 1020.67 485.664 1024.52Z" fill="white"/>
<path d="M524.196 598.923C539.386 700.947 547.698 804.091 569.98 904.967C571.585 912.234 582.713 909.152 581.111 901.898C558.83 801.025 550.517 697.877 535.328 595.854C534.233 588.513 523.112 591.645 524.196 598.923Z" fill="white"/>
<path d="M578.549 624.885C579.056 622.576 579.588 620.268 580.326 618.02C580.946 616.132 580.089 618.29 580.599 617.37C579.054 620.163 572.856 619.26 571.55 616.12C571.754 616.612 571.858 617.15 571.965 617.669C572.354 619.547 571.959 617.146 572.153 618.833C572.427 621.219 572.545 623.624 572.652 626.022C573.274 640.01 572.919 654.06 572.634 668.053C571.82 708.002 570.661 747.904 569.015 787.831C567.53 823.864 567.452 859.903 572.224 895.716C572.661 898.998 574.528 901.268 577.995 901.487C578.742 901.534 578.055 901.459 577.787 901.084C578.193 901.651 578.201 902.102 578.387 902.917C578.751 904.511 578.799 905.936 579.658 907.4C583.202 913.442 589.317 909.151 591.701 904.875C595.329 898.368 585.359 892.548 581.734 899.049C580.239 901.73 580.992 899.51 583.254 899.009C584.736 899.203 586.219 899.397 587.701 899.591C590.584 901.302 590.192 903.757 589.637 900.469C589.361 898.837 588.759 897.384 588.096 895.872C586.349 891.884 582.024 890.199 577.996 889.944C579.92 891.868 581.844 893.792 583.767 895.715C575.505 833.704 582.791 771.621 583.314 709.42C583.532 683.479 584.914 657.542 584.37 631.596C584.284 627.491 584.148 623.377 583.745 619.289C583.493 616.735 583.347 613.278 581.78 611.066C578.785 606.839 573.314 607.229 570.632 611.541C568.795 614.494 568.151 618.481 567.418 621.813C565.825 629.071 576.952 632.154 578.549 624.885Z" fill="white"/>
<path d="M519.417 614.276C520.354 626.38 540.877 627.665 549.648 628.92C568.787 631.659 588.236 632.687 607.559 632.72C615.149 632.733 614.806 621.924 607.559 621.177C599.505 620.347 591.859 617.811 586.326 611.694C581.755 606.64 580.09 599.374 579.05 592.851C576.542 577.118 578.851 560.993 576.521 545.207C575.437 537.865 564.316 540.997 565.39 548.276C567.911 565.36 565.149 582.757 568.62 599.796C570.3 608.041 574.001 615.941 580.081 621.843C587.46 629.006 597.617 631.695 607.558 632.72C607.558 628.872 607.558 625.025 607.558 621.177C591.341 621.149 575.1 620.319 558.977 618.558C552.055 617.802 545.14 616.784 538.366 615.149C536.349 614.662 533.557 613.873 532.075 613.209C531.368 612.892 530.702 612.502 530.054 612.081C530.567 612.497 530.6 612.5 530.153 612.092C530.761 612.679 530.897 613.474 530.959 614.276C530.389 606.905 518.842 606.849 519.417 614.276Z" fill="white"/>
<path d="M496.539 559.402C496.539 581.918 496.539 604.433 496.539 626.949C496.539 633.345 506.512 634.972 507.876 628.483C512.366 607.115 512.657 585.373 512.659 563.629C512.659 556.185 501.117 556.185 501.116 563.629C501.115 584.323 501.02 605.075 496.746 625.415C500.525 625.926 504.304 626.438 508.083 626.949C508.083 604.433 508.083 581.918 508.083 559.402C508.082 551.958 496.539 551.958 496.539 559.402Z" fill="white"/>
<path d="M508.082 559.402C508.326 549.402 512.413 539.891 512.658 529.854C508.81 529.854 504.963 529.854 501.115 529.854C501.35 550.209 511.435 570.037 531.091 577.631C551.642 585.571 570.876 571.178 580.509 553.87C584.132 547.36 574.162 541.54 570.542 548.044C563.033 561.536 550.147 572.125 534.16 566.501C519.44 561.323 512.824 544.188 512.659 529.855C512.573 522.404 501.298 522.422 501.116 529.855C500.871 539.855 496.785 549.366 496.54 559.403C496.357 566.85 507.9 566.832 508.082 559.402Z" fill="white"/>
<path d="M566.372 577.835C567.9 577.835 569.428 577.835 570.956 577.835C574.102 577.835 576.727 575.21 576.727 572.064C576.727 568.918 574.102 566.293 570.956 566.293C569.428 566.293 567.9 566.293 566.372 566.293C563.226 566.293 560.601 568.918 560.601 572.064C560.601 575.21 563.226 577.835 566.372 577.835Z" fill="white"/>
<path d="M680.379 980.236C684.975 989.358 682.966 1000.32 679.797 1009.55C677.372 1016.61 688.524 1019.61 690.928 1012.62C695.181 1000.24 696.387 986.401 690.346 974.411C686.996 967.761 677.039 973.607 680.379 980.236Z" fill="white"/>
<path d="M473.863 980.008C468.494 995.914 475.619 1011.27 491.615 1016.65C498.691 1019.03 501.701 1007.88 494.684 1005.52C484.414 1002.06 481.728 992.749 484.994 983.076C487.381 976.004 476.23 972.995 473.863 980.008Z" fill="white"/>
<path d="M464.501 943.548C464.504 951.371 464.806 958.742 470.76 964.512C476.105 969.692 484.275 961.538 478.922 956.35C475.482 953.016 476.046 948.285 476.044 943.548C476.041 936.105 464.498 936.104 464.501 943.548Z" fill="white"/>
<path d="M675.01 892.873C675.004 900.659 674.818 908.212 671.226 915.305C667.871 921.928 677.829 927.773 681.193 921.131C685.751 912.131 686.545 902.814 686.553 892.873C686.559 885.429 675.016 885.43 675.01 892.873Z" fill="white"/>
<path d="M470.272 898.645C506.42 898.688 542.544 901.602 578.687 902.261C596.948 902.594 615.299 902.644 633.509 901.057C644.905 900.064 658.921 899.134 668.335 891.835C669.858 890.654 671.222 889.112 672.041 887.357C675.166 880.655 665.217 874.789 662.074 881.531C661.931 881.838 661.776 882.128 661.601 882.419C660.966 883.476 662.484 881.414 661.633 882.371C661.379 882.657 661.091 882.911 660.805 883.165C659.776 884.082 661.843 882.442 660.644 883.26C658.332 884.838 657.945 884.827 655.461 885.653C649.842 887.521 643.874 888.404 638.009 889.066C620.355 891.061 602.447 891.012 584.707 890.808C547.789 890.383 510.942 887.551 474.031 887.123C472.778 887.108 471.525 887.103 470.272 887.102C462.828 887.093 462.829 898.636 470.272 898.645Z" fill="white"/>
<path d="M689.928 899.774C689.298 899.774 688.668 899.774 688.038 899.774C684.892 899.774 682.267 902.399 682.267 905.545C682.267 908.691 684.892 911.316 688.038 911.316C690.197 911.316 692.357 911.316 694.516 911.316C697.662 911.316 700.287 908.691 700.287 905.545C700.287 902.399 697.662 899.774 694.516 899.774C692.357 899.774 690.197 899.774 688.038 899.774C684.892 899.774 682.267 902.399 682.267 905.545C682.267 908.691 684.892 911.316 688.038 911.316C688.668 911.316 689.298 911.316 689.928 911.316C693.074 911.316 695.699 908.691 695.699 905.545C695.699 902.4 693.074 899.774 689.928 899.774Z" fill="white"/>
<path d="M566.372 577.835C589.584 577.898 612.661 579.858 635.882 578.102C646.601 577.291 658.896 576.313 668.354 570.67C677.042 565.487 677.901 555.821 672.039 548.044C667.618 542.178 657.588 547.92 662.072 553.87C663.02 555.127 664.236 557.317 664.294 557.483C664.39 557.78 664.471 558.081 664.537 558.385C664.888 559.826 664.484 557.157 664.519 558.563C664.53 559.018 664.823 557.847 664.297 559.374C664.598 558.501 664.196 559.339 664.278 559.243C664.035 559.527 662.35 560.892 663.37 560.151C662.037 561.119 659.997 562.037 659.273 562.312C649.577 565.999 638.598 566.523 628.354 567.024C607.65 568.037 587.056 566.348 566.372 566.292C558.928 566.272 558.93 577.815 566.372 577.835Z" fill="white"/>
<path d="M634.615 552.271C624.773 570.754 620.748 592.859 618.057 613.413C616.909 622.184 615.92 631.174 616.608 640.026C617.07 645.976 618.672 653.309 625.857 653.827C633.288 654.362 633.236 642.816 625.857 642.284C626.872 642.357 627.776 642.605 628.535 643.321C629.555 644.284 628.996 643.944 628.697 643.366C629.404 644.731 628.458 642.168 628.343 641.585C628.062 640.162 627.94 636.306 627.951 633.827C627.987 625.571 628.978 617.296 630.233 609.148C632.866 592.06 636.377 573.502 644.581 558.096C648.079 551.53 638.115 545.699 634.615 552.271Z" fill="white"/>
<path d="M606.365 639.602C597.289 724.611 607.124 811.057 592.846 895.581C591.616 902.86 602.739 905.978 603.977 898.65C618.437 813.048 608.72 725.671 617.909 639.602C618.697 632.204 607.146 632.28 606.365 639.602Z" fill="white"/>
<path d="M501.173 1034.68C497.262 1058.35 529.402 1066.35 546.65 1069.42C575.973 1074.64 607.652 1074 636.543 1066.58C655.109 1061.81 681.754 1050.44 679.836 1027.06C679.232 1019.69 667.684 1019.63 668.293 1027.06C668.668 1031.63 668.003 1034.16 665.724 1037.8C663.761 1040.93 659.905 1044.11 656.187 1046.43C645.443 1053.11 632.522 1056.15 620.128 1058.29C592.439 1063.08 561.623 1062.78 534.544 1054.78C530.91 1053.7 527.577 1052.49 524.561 1051.07C523.127 1050.4 521.734 1049.64 520.37 1048.83C519.126 1048.1 517.273 1046.75 517.151 1046.65C514.506 1044.48 514.182 1044.13 512.845 1041.49C512.396 1040.6 513.165 1042.48 512.657 1040.93C512.485 1040.41 512.373 1039.87 512.269 1039.33C512.628 1041.2 512.589 1036.02 512.305 1037.75C513.507 1030.47 502.385 1027.35 501.173 1034.68Z" fill="white"/>
<path d="M566.639 228.744C566.676 217.503 566.674 206.514 572.136 197.661C578.511 187.328 578.228 173.964 578.267 162.274C578.292 154.829 566.749 154.832 566.724 162.274C566.687 173.515 566.689 184.504 561.227 193.356C554.852 203.689 555.135 217.054 555.096 228.744C555.071 236.189 566.614 236.187 566.639 228.744Z" fill="white"/>
<path d="M762.985 267.495C775.028 250.976 787.659 232.117 805.823 222.621C812.273 219.249 818.954 216.385 825.315 212.83C837.592 205.969 848.898 197.467 859.876 188.719C865.697 184.081 857.472 175.969 851.714 180.557C841.269 188.88 830.424 196.751 818.751 203.275C812.315 206.872 805.515 209.719 799.01 213.173C779.305 223.637 765.78 244.162 753.017 261.669C748.625 267.695 758.648 273.445 762.985 267.495Z" fill="white"/>
<path d="M403.655 236.617C370.484 198.15 330.2 166.7 296.133 129.087C291.126 123.559 282.988 131.747 287.971 137.249C322.038 174.862 362.322 206.312 395.493 244.779C400.363 250.425 408.49 242.223 403.655 236.617Z" fill="white"/>
<path d="M118.813 539.176C160.16 539.176 201.7 539.175 242.73 544.948C250.007 545.972 253.144 534.851 245.799 533.817C203.698 527.893 161.248 527.633 118.814 527.632C111.37 527.633 111.37 539.176 118.813 539.176Z" fill="white"/>
<path d="M961.108 545.155C1010.91 545.155 1060.95 545.025 1110.45 551.126C1117.83 552.035 1117.74 540.481 1110.45 539.583C1060.95 533.482 1010.91 533.612 961.108 533.612C953.664 533.612 953.664 545.155 961.108 545.155Z" fill="white"/>
<path d="M271.215 755.431C239.474 771.251 206.377 783.5 173.93 797.68C141.531 811.839 112.616 831.275 85.4681 853.828C79.7361 858.589 87.9491 866.709 93.6301 861.99C120.349 839.794 148.934 821.117 180.791 807.194C212.895 793.164 245.632 781.052 277.041 765.397C283.703 762.077 277.855 752.121 271.215 755.431Z" fill="white"/>
<path d="M967.649 805.188C942.695 789.589 917.92 773.254 891.263 760.653C866.485 748.94 840.175 741.888 813.299 736.924C806.024 735.58 802.917 746.704 810.23 748.055C836.537 752.914 862.336 759.7 886.59 771.165C912.844 783.575 937.25 799.794 961.823 815.155C968.155 819.113 973.944 809.123 967.649 805.188Z" fill="white"/>
<path d="M698.375 911.986C699.804 915.416 699.607 919.664 699.753 923.31C699.943 928.063 699.932 932.825 699.932 937.581C699.932 940.515 704.482 940.515 704.481 937.581C704.48 932.378 704.457 927.176 704.248 921.976C704.105 918.396 704.164 914.146 702.761 910.776C701.651 908.109 697.247 909.278 698.375 911.986Z" fill="white"/>
<path d="M701.572 945.77C701.568 955.33 701.76 965.507 696.972 974.1C695.543 976.665 699.472 978.959 700.9 976.396C706.102 967.061 706.116 956.175 706.121 945.77C706.123 942.836 701.574 942.837 701.572 945.77Z" fill="white"/>
<path d="M582.669 920.205C621.975 920.232 661.261 921.818 700.568 921.845C703.502 921.847 703.502 917.298 700.568 917.296C661.262 917.269 621.976 915.683 582.669 915.656C579.735 915.654 579.736 920.203 582.669 920.205Z" fill="white"/>
<path d="M585.335 928.313C626.862 936.457 669.375 934.893 711.001 928.313C713.892 927.856 712.661 923.472 709.792 923.926C669.022 930.371 627.217 931.902 586.545 923.926C583.679 923.365 582.458 927.749 585.335 928.313Z" fill="white"/>
<path d="M587.088 951.005C594.487 947.172 603.555 946.614 611.712 946.119C623.133 945.426 634.619 945.772 646.04 946.255C668.029 947.185 690.013 949.617 712.031 949.675C714.965 949.683 714.964 945.133 712.031 945.126C689.114 945.065 666.228 942.516 643.338 941.594C631.689 941.125 619.989 940.931 608.354 941.795C600.416 942.385 591.955 943.364 584.791 947.076C582.186 948.427 584.487 952.353 587.088 951.005Z" fill="white"/>
<path d="M583.274 959.424C628.041 952.891 673.443 952.956 718.582 952.956C721.516 952.956 721.516 948.407 718.582 948.407C673.014 948.407 627.254 948.443 582.065 955.038C579.17 955.459 580.405 959.843 583.274 959.424Z" fill="white"/>
<path d="M584.309 972.613C622.205 974.086 659.552 966.17 697.296 964.424C700.217 964.289 700.23 959.739 697.296 959.875C659.552 961.621 622.205 969.537 584.309 968.064C581.374 967.95 581.385 972.5 584.309 972.613Z" fill="white"/>
<path d="M597.405 987.344C624.776 983.976 651.438 974.494 679.283 975.876C682.217 976.022 682.203 971.471 679.283 971.327C651.394 969.942 624.802 979.424 597.405 982.795C594.532 983.148 594.498 987.702 597.405 987.344Z" fill="white"/>
<path d="M590.855 997.165C625.032 997.134 659.128 995.32 692.988 990.541C695.883 990.132 694.647 985.749 691.779 986.154C658.332 990.874 624.613 992.585 590.856 992.615C587.921 992.618 587.921 997.168 590.855 997.165Z" fill="white"/>
<path d="M602.315 1006.99C630.129 1006.92 658.157 1003.65 684.798 995.453C687.593 994.593 686.4 990.201 683.589 991.066C657.308 999.152 629.754 1002.37 602.315 1002.44C599.381 1002.45 599.381 1007 602.315 1006.99Z" fill="white"/>
<path d="M605.594 1018.46C631.48 1018.3 657.221 1012.23 681.526 1003.64C684.272 1002.67 683.09 998.275 680.317 999.255C656.381 1007.72 631.088 1013.75 605.594 1013.91C602.662 1013.92 602.66 1018.47 605.594 1018.46Z" fill="white"/>
<path d="M611.113 1054.41C630.463 1049.64 650.092 1046.86 667.331 1036.16C669.817 1034.62 667.535 1030.68 665.035 1032.23C648.139 1042.72 628.86 1045.35 609.904 1050.02C607.056 1050.72 608.264 1055.11 611.113 1054.41Z" fill="white"/>
<path d="M638.953 887.375C649.89 885.885 661.09 885.769 671.703 882.464C674.495 881.595 673.302 877.202 670.494 878.077C659.898 881.376 648.671 881.5 637.744 882.988C634.847 883.382 636.085 887.765 638.953 887.375Z" fill="white"/>
<path d="M625.244 882.545C633.633 883.257 642.094 884.421 650.518 883.667C658.55 882.948 665.663 879.594 672.036 874.776C674.344 873.03 672.082 869.077 669.74 870.848C663.587 875.5 657.034 878.535 649.299 879.227C641.332 879.94 633.172 878.669 625.244 877.996C622.319 877.747 622.343 882.299 625.244 882.545Z" fill="white"/>
<path d="M628.523 866.167C646.33 866.056 664.632 862.915 680.431 854.387C683.013 852.993 680.716 849.065 678.135 850.459C663.043 858.604 645.52 861.511 628.523 861.617C625.59 861.636 625.588 866.186 628.523 866.167Z" fill="white"/>
<path d="M630.155 848.157C640.427 847.521 650.605 846.413 660.653 844.146C671.066 841.797 681.314 838.733 691.701 836.266C694.555 835.588 693.344 831.202 690.492 831.879C680.485 834.256 670.599 837.096 660.599 839.49C650.591 841.886 640.411 842.972 630.155 843.608C627.241 843.788 627.223 848.338 630.155 848.157Z" fill="white"/>
<path d="M630.759 825.139C655.228 820.249 679.713 815.384 704.451 812.047C707.347 811.656 706.109 807.273 703.242 807.66C678.503 810.997 654.018 815.862 629.55 820.752C626.674 821.327 627.895 825.712 630.759 825.139Z" fill="white"/>
<path d="M645.502 794.029C667.673 789.022 690.467 787.582 712.637 782.569C715.498 781.922 714.285 777.536 711.428 778.182C689.258 783.195 666.464 784.635 644.293 789.642C641.432 790.288 642.645 794.674 645.502 794.029Z" fill="white"/>
<path d="M652.048 776.018C678.212 771.982 704.729 772.551 730.43 765.544C733.257 764.773 732.056 760.384 729.221 761.157C703.546 768.156 676.986 767.597 650.839 771.631C647.946 772.077 649.179 776.461 652.048 776.018Z" fill="white"/>
<path d="M669.458 748.26C696.66 748.223 724.703 746.733 750.302 736.711C753.002 735.654 751.828 731.253 749.093 732.324C723.833 742.213 696.302 743.674 669.459 743.711C666.524 743.715 666.524 748.264 669.458 748.26Z" fill="white"/>
<path d="M676.007 723.7C705.105 722.022 735.051 721.931 762.304 710.281C764.994 709.131 762.674 705.213 760.008 706.353C733.583 717.648 704.203 717.525 676.007 719.15C673.091 719.319 673.075 723.869 676.007 723.7Z" fill="white"/>
<path d="M698.936 689.311C725.666 689.23 752.198 685.815 778.14 679.401C780.987 678.697 779.779 674.31 776.931 675.014C751.369 681.334 725.275 684.681 698.937 684.761C696.003 684.77 696.002 689.32 698.936 689.311Z" fill="white"/>
<path d="M705.486 672.932C731.891 671.125 757.24 663.352 783.055 658.112C785.929 657.529 784.709 653.144 781.846 653.725C756.438 658.883 731.474 666.604 705.487 668.383C702.576 668.582 702.556 673.133 705.486 672.932Z" fill="white"/>
<path d="M710.397 654.914C729.518 654.762 747.984 650.098 766.68 646.659C769.563 646.129 768.338 641.745 765.471 642.272C747.172 645.638 729.114 650.215 710.397 650.364C707.464 650.388 707.462 654.938 710.397 654.914Z" fill="white"/>
<path d="M715.311 620.537C745.224 620.539 774.873 620.053 804.522 615.673C807.416 615.246 806.181 610.862 803.313 611.286C774.081 615.604 744.8 615.989 715.311 615.987C712.377 615.987 712.377 620.537 715.311 620.537Z" fill="white"/>
<path d="M736.596 597.609C760.978 597.524 785.155 594.409 809.253 590.977C812.148 590.565 810.912 586.182 808.044 586.59C784.346 589.964 760.571 592.976 736.596 593.059C733.663 593.069 733.662 597.619 736.596 597.609Z" fill="white"/>
<path d="M713.067 581.153C740.956 586.185 770.512 583.393 797.794 576.242C800.63 575.499 799.426 571.11 796.585 571.855C770.136 578.787 741.336 581.648 714.277 576.766C711.408 576.248 710.182 580.632 713.067 581.153Z" fill="white"/>
<path d="M714.706 559.863C747.386 564.863 782.837 562.537 814.168 551.674C816.922 550.719 815.738 546.323 812.959 547.287C782.428 557.873 747.798 560.354 715.916 555.476C713.047 555.037 711.814 559.421 714.706 559.863Z" fill="white"/>
<path d="M721.861 543.566C747.04 543.484 772.096 540.359 797.189 538.651C800.1 538.453 800.119 533.902 797.189 534.102C772.096 535.81 747.039 538.934 721.861 539.017C718.927 539.026 718.927 543.575 721.861 543.566Z" fill="white"/>
<path d="M698.936 523.916C726.705 525.721 756.309 525.973 783.054 517.284C785.832 516.382 784.643 511.988 781.845 512.897C755.47 521.465 726.326 521.146 698.936 519.366C696.006 519.176 696.024 523.727 698.936 523.916Z" fill="white"/>
<path d="M702.812 509.099C716.763 503.254 731.971 500.654 746.824 498.249C762.693 495.68 778.676 493.845 794.515 491.085C797.401 490.582 796.174 486.198 793.306 486.698C777.468 489.458 761.49 491.335 745.615 493.862C730.767 496.226 715.541 498.873 701.603 504.712C698.939 505.828 700.107 510.233 702.812 509.099Z" fill="white"/>
<path d="M692.383 479.702C729.788 474.797 766.969 468.365 804.343 463.246C807.239 462.849 806.001 458.466 803.134 458.859C766.163 463.923 729.384 470.301 692.383 475.153C689.517 475.528 689.48 480.082 692.383 479.702Z" fill="white"/>
<path d="M679.283 448.592C714.886 448.476 750.122 442.154 785.725 442.038C788.658 442.028 788.659 437.479 785.725 437.489C750.122 437.605 714.886 443.927 679.283 444.043C676.35 444.052 676.349 448.602 679.283 448.592Z" fill="white"/>
<path d="M634.038 419.032C676.749 408.551 722.748 410.703 766.075 415.842C768.985 416.187 768.951 411.634 766.075 411.293C722.321 406.103 675.96 404.061 632.828 414.645C629.98 415.344 631.189 419.731 634.038 419.032Z" fill="white"/>
<path d="M599.649 397.743C644.164 384.806 690.919 389.57 736.597 389.635C739.531 389.639 739.531 385.09 736.597 385.086C690.504 385.021 643.359 380.303 598.44 393.357C595.628 394.173 596.825 398.563 599.649 397.743Z" fill="white"/>
<path d="M571.205 378.178C598.867 377.041 626.316 372.432 653.929 370.492C668.254 369.486 682.67 369.04 697.003 370.129C709.032 371.043 721.703 373.177 732.177 379.499C734.696 381.019 736.981 377.084 734.473 375.571C724.64 369.636 713.177 367.346 701.905 366.046C686.944 364.321 671.735 364.827 656.738 365.757C628.162 367.529 599.811 372.454 571.204 373.629C568.282 373.749 568.27 378.299 571.205 378.178Z" fill="white"/>
<path d="M547.246 368.268C570.308 362.246 593.385 356.246 616.989 352.719C640.29 349.238 668.004 346.748 689.595 358.214C692.184 359.589 694.483 355.662 691.891 354.286C670.494 342.923 644 344.622 620.772 347.637C595.441 350.925 570.706 357.439 546.036 363.881C543.2 364.622 544.404 369.01 547.246 368.268Z" fill="white"/>
<path d="M501.396 368.268C558.453 351.966 616.195 335.765 676.007 335.596C678.94 335.588 678.941 331.038 676.007 331.047C615.794 331.218 557.629 347.47 500.187 363.882C497.371 364.686 498.569 369.076 501.396 368.268Z" fill="white"/>
<path d="M454.447 371.318C480.076 359.62 506.097 348.667 533.327 341.248C560.644 333.805 588.789 330.748 617.058 330.685C619.991 330.678 619.992 326.129 617.058 326.136C588.344 326.2 559.884 329.441 532.117 336.861C504.503 344.24 478.096 355.547 452.15 367.389C449.485 368.606 451.799 372.526 454.447 371.318Z" fill="white"/>
<path d="M405.782 375.872C432.006 354.336 463.69 339.586 495.943 329.602C528.661 319.474 564.317 313.911 598.439 319.139C601.308 319.579 602.541 315.195 599.648 314.752C565.092 309.458 529.467 314.833 496.223 324.762C462.654 334.788 429.743 350.335 402.565 372.654C400.297 374.519 403.535 377.718 405.782 375.872Z" fill="white"/>
</svg>
